<svg width="24" height="24" viewBox="0 0 24 24" fill="none" xmlns="http://www.w3.org/2000/svg">
<path fill-rule="evenodd" clip-rule="evenodd" d="M3.83366 2.10388C3.47213 2.26431 3.09646 2.72176 3.03206 3.07997C3.00348 3.2387 2.99184 7.36621 3.00608 12.2522C3.03179 21.0648 3.03349 21.1379 3.21667 21.3833C3.31825 21.5193 3.51262 21.7137 3.64869 21.8153C3.89009 21.9955 3.99471 22 8.00335 22C12.012 22 12.1166 21.9955 12.358 21.8153C12.4941 21.7137 12.6885 21.5194 12.79 21.3835C12.9641 21.1506 12.9763 20.9983 13.0012 18.7366L13.0276 16.337L13.6282 16.2809C15.8482 16.0737 17.8076 14.8925 19.0249 13.0279C19.8211 11.8082 20.1368 10.7063 20.1368 9.14605C20.1368 7.58584 19.8211 6.4839 19.0249 5.26425C18.0191 3.72357 16.6734 2.75822 14.7228 2.17823C14.2951 2.05112 13.5492 2.0281 9.16782 2.00705C5.06737 1.98734 4.055 2.00571 3.83366 2.10388ZM14.0459 4.98361C16.3399 5.58116 17.7656 7.93142 17.1855 10.1589C16.8135 11.5872 15.8607 12.6387 14.4299 13.1995C14.0537 13.3469 13.6713 13.3943 12.5109 13.437C10.937 13.495 10.81 13.535 10.3826 14.107C10.2085 14.3399 10.1964 14.492 10.1714 16.7662L10.1449 19.1784H7.99923H5.85356V12.0124V4.84647H9.68646C12.8392 4.84647 13.6128 4.87084 14.0459 4.98361Z" fill="#6C757D"/>
</svg>
