<svg width="50" height="50" viewBox="0 0 50 50" fill="none" xmlns="http://www.w3.org/2000/svg">
<rect x="0.5" y="0.5" width="49" height="49" stroke="#ADB5BD"/>
<g clip-path="url(#clip0_1473_26)">
<path d="M22.1629 33.0014C22.5987 33.8189 22.9035 35.1896 23.0178 36.0785C23.0573 36.205 23.1306 36.3184 23.2297 36.4067C23.4682 36.5869 23.7475 36.7059 24.043 36.7533C24.3385 36.8007 24.6411 36.7751 24.9243 36.6787C25.0638 36.646 25.1869 36.5643 25.2708 36.4484C25.3548 36.3326 25.3941 36.1905 25.3815 36.0481C25.316 34.9236 25.6329 33.8858 26.1054 32.8889C26.4417 32.2275 26.9082 31.6405 27.4769 31.1627C27.6735 30.9879 27.797 30.9986 27.9875 31.1718C28.0427 31.2179 28.0937 31.2687 28.1399 31.3238C28.6458 31.9777 28.9997 32.7354 29.1762 33.5423C29.331 34.2662 29.4006 35.0057 29.3834 35.7457C29.3834 36.0967 29.4505 36.1712 29.7782 36.3034C30.1104 36.424 30.4662 36.4662 30.8175 36.4265C30.9883 36.4285 31.1557 36.3785 31.2973 36.2832C31.4389 36.1879 31.548 36.0518 31.61 35.8931C31.8462 35.3248 32.1144 34.7671 32.372 34.2079C32.7094 33.5409 33.1182 32.9122 33.5911 32.3328C33.632 32.277 33.679 32.226 33.7313 32.1808C33.9797 31.9726 34.123 31.9817 34.2221 32.2689C34.3476 32.6091 34.4365 32.9616 34.4872 33.3205C34.6259 34.565 34.7036 35.8095 34.5055 37.0586C34.3455 38.0783 34.2007 39.0979 33.8685 40.0795C33.7059 40.5628 33.5403 41.045 33.3717 41.5262C33.3246 41.663 33.3297 41.8123 33.3859 41.9457C33.4421 42.0791 33.5455 42.1872 33.6765 42.2495C33.8831 42.3395 34.1078 42.3807 34.333 42.3698C34.5582 42.359 34.7779 42.2965 34.9749 42.1872C35.0332 42.1563 35.0849 42.1145 35.1273 42.0641C35.432 41.7155 35.6822 41.3231 35.8695 40.9001C36.0219 40.5612 36.1514 40.2193 36.2962 39.8805C37.0303 38.2216 37.435 36.4367 37.4879 34.6243C37.5062 33.7125 37.4879 32.8008 37.1344 31.9422C36.9393 31.462 36.6635 31.0442 36.1849 30.798C35.9381 30.6703 35.6851 30.5564 35.4321 30.4424C34.8561 30.1932 34.2153 30.1341 33.6033 30.2737C32.6661 30.4561 31.927 30.9727 31.3052 31.6626L30.9516 32.044C30.9007 31.9784 30.8543 31.9094 30.8129 31.8374C30.536 31.3111 30.1592 30.8436 29.7035 30.4606C29.4237 30.2057 29.0926 30.0132 28.7324 29.8958C28.3721 29.7784 27.9909 29.7389 27.6141 29.7799C27.0973 29.8289 26.5967 29.9865 26.1454 30.2424C25.6942 30.4983 25.3024 30.8466 24.9959 31.2645C24.6911 31.6641 24.4366 32.1109 24.1379 32.5698C24.077 32.4999 24.0282 32.4467 23.9855 32.3905C23.7051 32.0091 23.3851 31.7006 23.0879 31.3268C22.6345 30.8175 22.1406 30.3454 21.6112 29.9151C21.254 29.6515 20.8792 29.4124 20.4896 29.1994C19.563 28.6554 18.6928 28.4685 17.6412 28.4259C16.7908 28.391 15.9649 28.587 15.1282 28.8058C14.532 28.9587 13.9537 29.1741 13.4031 29.4486C12.5683 29.8717 11.8064 30.4247 11.1461 31.0867C10.6518 31.5811 10.2199 32.1337 9.85985 32.7324C9.59856 33.1951 9.38313 33.6822 9.2167 34.1866C9.0262 34.717 9.01251 35.2731 8.93326 35.8187C8.91499 35.9416 8.91499 36.0665 8.93326 36.1894C8.93326 36.2046 8.93327 36.2213 8.94394 36.2381C8.98661 36.4052 8.97745 36.5708 9.00641 36.7441C9.01678 36.8028 9.02189 36.8623 9.02166 36.9219C9.01252 37.6497 9.235 38.3168 9.49865 38.9687C9.75003 39.603 10.0969 40.1953 10.5273 40.7254C11.0388 41.3071 11.6663 41.776 12.3698 42.1021C12.9291 42.3282 13.5227 42.4587 14.1254 42.4881C14.8621 42.5297 15.5995 42.4233 16.2941 42.175C17.2808 41.8307 18.1559 41.2269 18.8269 40.4275C19.4605 39.6859 19.8729 38.782 20.0171 37.8184C20.0822 37.2897 20.1077 36.7569 20.0933 36.2244C20.1022 35.3845 19.9209 34.5534 19.563 33.7931C19.1393 32.8813 18.4764 32.2629 17.4767 32.0228C17.1689 31.9441 16.8466 31.941 16.5373 32.0137C16.2281 32.0865 15.9412 32.233 15.7012 32.4406C15.5775 32.5444 15.4797 32.6754 15.4157 32.8234C15.3517 32.9714 15.3232 33.1322 15.3324 33.2931C15.3326 33.3554 15.3532 33.4159 15.3912 33.4653C15.4292 33.5147 15.4824 33.5503 15.5427 33.5667C15.6913 33.621 15.8553 33.6155 15.9999 33.5515C16.0357 33.5405 16.0658 33.5159 16.0837 33.4831C16.2019 33.2273 16.3421 32.9822 16.5028 32.7506C16.7192 32.4832 16.9859 32.4893 17.2282 32.7278C17.3578 32.8557 17.4682 33.0016 17.5559 33.1609C18.0451 34.0499 18.2341 35.0254 18.3179 36.0177C18.3488 36.4893 18.3263 36.9628 18.2508 37.4294C18.143 38.1763 17.8669 38.8891 17.4431 39.5143C16.9101 40.3304 16.1517 40.9753 15.2593 41.3712C14.4409 41.7298 13.7902 41.6356 13.1958 41.0156C12.0717 39.8741 11.4311 38.3452 11.4067 36.7456C11.4026 36.4055 11.4199 36.0654 11.4585 35.7275C11.5795 34.6262 11.9866 33.5755 12.6396 32.6792C13.1948 31.9259 13.8795 31.2766 14.6619 30.7615C15.3774 30.2543 16.1974 29.9127 17.0621 29.7616C17.8455 29.6355 18.3346 29.5884 19.2383 30.0656C19.2368 30.0595 20.8782 30.9211 22.1629 33.0014Z" fill="#ADB5BD"/>
<path d="M12.9306 16.634C13.2537 16.3955 13.4914 16.2101 13.7398 16.0384C14.7089 15.3654 15.6034 14.5917 16.4083 13.7301C17.1484 12.9322 17.6641 11.9535 17.9033 10.8931C18.0725 10.2697 18.0389 9.60888 17.8073 9.00578C17.5726 8.42379 17.1901 8.27943 16.6125 8.56055C16.0349 8.84167 15.5457 9.29602 15.1022 9.77621C14.4901 10.457 13.9479 11.1971 13.4838 11.9857C12.6353 13.3353 11.9488 14.7797 11.4386 16.2891C10.954 17.7509 10.5761 19.2416 10.6462 20.8022C10.7056 22.1334 11.1369 23.3278 12.0802 24.2972C12.7492 24.9902 13.5646 25.1771 14.45 24.8321C15.5168 24.4173 16.2788 23.6833 16.5454 22.5269C16.6117 22.2983 16.6099 22.0554 16.5404 21.8278C16.4709 21.6001 16.3366 21.3975 16.1538 21.2444C15.7413 20.8668 15.2297 20.6138 14.6786 20.515C14.4587 20.4713 14.2304 20.5097 14.037 20.6229C13.8206 20.746 13.5966 20.8584 13.3802 20.9846C13.1881 21.097 13.0342 21.0165 12.8833 20.904C12.7325 20.7916 12.7416 20.6184 12.7995 20.4482C12.929 20.0759 13.2262 19.8814 13.5707 19.737C14.0522 19.5364 14.5597 19.585 15.0565 19.6063C16.2583 19.6662 17.4181 20.0663 18.4001 20.7597C18.6483 20.9385 18.866 21.1561 19.0448 21.404C19.1668 21.5728 19.2521 21.7651 19.2951 21.9687C19.3381 22.1723 19.338 22.3827 19.2947 22.5862C19.1588 23.383 18.7873 24.1211 18.2279 24.706C17.8641 25.0836 17.4485 25.408 16.9935 25.6694C15.9267 26.2955 14.7624 26.5386 13.531 26.5812C12.6434 26.609 11.757 26.4983 10.9037 26.2529C10.1111 26.0457 9.38528 25.6385 8.79607 25.0707C8.18123 24.4921 7.72261 23.7682 7.4626 22.9661C7.13788 21.8875 7.0536 20.7512 7.2157 19.6367C7.35732 18.6083 7.61604 17.5994 7.98684 16.6295C8.25201 15.9305 8.49736 15.2208 8.82349 14.5507C9.33299 13.4644 9.94265 12.4276 10.6446 11.4538C11.0817 10.8345 11.563 10.2474 12.0848 9.69718C12.923 8.85838 13.8236 8.11379 14.9331 7.664C15.9115 7.26739 16.9142 7.02426 17.981 7.20053C18.5933 7.27526 19.1643 7.54739 19.6071 7.97551C19.7891 8.15835 19.9282 8.37904 20.0146 8.62177C20.1011 8.86451 20.1326 9.12329 20.107 9.37959C20.0175 10.8422 19.5051 12.2477 18.6318 13.4262C17.807 14.5683 16.7283 15.5045 15.4802 16.1614C15.0291 16.4036 14.5604 16.6119 14.0781 16.7845C13.8231 16.8442 13.5593 16.8581 13.2994 16.8255C13.2049 16.8164 13.1135 16.7283 12.9306 16.634Z" fill="#ADB5BD"/>
<path d="M32.3552 27.8485C32.2994 27.9115 32.2242 27.9542 32.1414 27.9699C32.0587 27.9856 31.973 27.9734 31.898 27.9351C31.7301 27.8673 31.5792 27.7636 31.456 27.6312C31.2472 27.3764 31.0946 27.0805 31.0082 26.7629C30.9218 26.4453 30.9035 26.1131 30.9546 25.788C31.059 25.1195 31.4054 24.5124 31.9284 24.0815C32.9664 23.2263 34.2271 22.6834 35.5631 22.5163C36.7 22.3514 37.8597 22.4497 38.9524 22.8035C41.0951 23.5025 42.3351 24.9715 42.6724 27.2103C42.8389 28.3011 42.8961 29.4057 42.8431 30.5078C42.7913 31.5229 42.7624 32.541 42.6816 33.5469C42.6145 34.3918 42.5094 35.2352 42.3768 36.0709C42.2533 36.8596 42.072 37.6376 41.9288 38.4247C41.6978 39.6257 41.3925 40.8112 41.0144 41.9745C40.7812 42.7343 40.4535 43.4697 40.164 44.2143C40.1219 44.3285 40.0473 44.4279 39.9493 44.5002C39.8512 44.5726 39.7341 44.6148 39.6123 44.6216C39.2256 44.6785 38.8306 44.6148 38.4815 44.4392C38.4071 44.4118 38.345 44.3587 38.3065 44.2896C38.2679 44.2205 38.2554 44.1399 38.2712 44.0624C38.2971 43.8709 38.3291 43.6779 38.3687 43.4895C38.547 42.6355 38.7452 41.786 38.9052 40.9275C39.1414 39.6662 39.3624 38.4004 39.5651 37.1286C39.6443 36.6271 39.6428 36.1135 39.6839 35.609C39.7327 35.0164 39.8043 34.4268 39.8363 33.8356C39.8927 32.7719 39.9583 31.7082 39.9598 30.6354C39.9598 29.7024 39.9003 28.7679 39.8257 27.8364C39.7464 26.8426 39.5727 25.8609 39.0637 24.978C38.509 24.0055 37.6433 23.5481 36.5384 23.5481C35.422 23.5558 34.3392 23.9296 33.457 24.6118C32.4679 25.3412 31.9147 26.5174 32.3552 27.8485Z" fill="#ADB5BD"/>
<path d="M29.0299 14.7589C29.1533 14.6875 29.263 14.6207 29.3773 14.5584C29.8241 14.308 30.2122 13.9656 30.5157 13.5539C30.7933 13.1874 30.9434 12.7406 30.9434 12.2813C30.9434 11.822 30.7933 11.3752 30.5157 11.0086C29.9424 10.2108 29.1162 9.62892 28.1704 9.35687C27.8079 9.25045 27.4261 9.22688 27.0533 9.28791C26.6805 9.34895 26.3263 9.49302 26.017 9.70941C25.0511 10.318 24.3258 11.2408 23.9642 12.3216C23.6685 13.1907 23.6777 14.0645 24.1669 14.8851C24.4207 15.3033 24.7843 15.6443 25.2184 15.8713C25.9012 16.239 26.6053 16.5703 27.3002 16.9152C28.05 17.2875 28.7784 17.675 29.4033 18.26C30.3177 19.1019 30.3298 20.784 29.2859 21.6548C28.7815 22.0735 28.2053 22.3979 27.5851 22.6121C26.2562 23.0801 24.8969 23.1379 23.5177 22.9555C22.819 22.8499 22.1381 22.6495 21.4938 22.3598C21.0366 22.1638 20.6161 21.8903 20.3753 21.4147C20.3052 21.2795 20.2702 21.1291 20.2734 20.977C20.2766 20.8249 20.3179 20.676 20.3935 20.544C20.4261 20.4867 20.4699 20.4364 20.5222 20.3962C20.5746 20.356 20.6344 20.3267 20.6983 20.3099C20.9909 20.2537 21.3079 20.1869 21.5929 20.4437C21.5977 20.542 21.5952 20.6405 21.5853 20.7385C21.5563 20.8829 21.576 21.0329 21.6413 21.1651C21.7066 21.2973 21.8139 21.4043 21.9465 21.4694C22.1767 21.6043 22.4172 21.7212 22.6658 21.8189C23.5207 22.1486 24.4046 22.3021 25.3114 22.0894C26.2182 21.8766 26.9177 21.3888 27.2834 20.5181C27.5562 19.8693 27.4358 19.269 26.9481 18.7402C26.4909 18.2494 25.9149 17.9409 25.3297 17.6537C24.5327 17.2617 23.728 16.8863 23.0239 16.3378C22.55 15.9655 22.0836 15.5856 21.7758 15.0431C21.4219 14.4313 21.276 13.7218 21.3597 13.0206C21.471 11.9857 21.9221 11.1013 22.5789 10.3172C22.9736 9.84605 23.4507 9.45013 23.9871 9.14869C24.5425 8.82946 25.1431 8.59584 25.7686 8.45576C26.4386 8.32652 27.1238 8.29428 27.8031 8.36003C28.7775 8.42903 29.7185 8.74268 30.5386 9.27177C30.9442 9.52068 31.2963 9.84706 31.5749 10.2321C32.1388 11.036 32.1967 11.9113 31.8797 12.8276C31.5627 13.7439 30.9653 14.3866 30.182 14.9063C29.798 15.1586 29.4337 15.11 29.0299 14.7589Z" fill="#ADB5BD"/>
<path d="M36.2474 8.43452C37.526 8.39501 38.541 8.64118 39.5026 9.17911C40.078 9.48769 40.6095 9.87148 41.083 10.3203C41.4661 10.7189 41.7988 11.1629 42.0735 11.6423C42.3204 12.042 42.421 12.4887 42.581 12.9142C42.6585 13.1695 42.6986 13.4346 42.6999 13.7014C42.7761 14.7438 42.453 15.6677 41.9089 16.549C41.4171 17.3295 40.8277 18.0443 40.1549 18.6764C38.8854 19.8921 37.4117 20.8038 35.6866 21.2263C35.1106 21.3742 34.5264 21.4884 33.9371 21.5682C33.5389 21.5927 33.1394 21.5861 32.7423 21.5484C32.6692 21.5504 32.5975 21.5285 32.538 21.4861C32.4368 21.4076 32.3598 21.3023 32.3156 21.1822C32.2912 21.0302 32.4497 20.971 32.5822 20.9345C32.8032 20.8707 33.0227 20.7978 33.2482 20.7491C35.1761 20.3328 36.7305 19.3055 38.0091 17.8391C38.6267 17.1687 39.1562 16.4227 39.5849 15.6191C40.2844 14.2241 40.3804 12.8306 39.527 11.463C39.1223 10.7792 38.5641 10.1982 37.8964 9.76566C37.3856 9.43089 36.7927 9.24172 36.1819 9.21862C35.9497 9.19831 35.7164 9.24166 35.5072 9.34396C35.298 9.44627 35.1207 9.60365 34.9947 9.79909C34.9231 9.89027 34.8731 9.99636 34.8483 10.1095C34.8235 10.2226 34.8246 10.3399 34.8515 10.4525C34.9018 10.6227 34.8103 10.7017 34.6823 10.7671C34.6136 10.8113 34.5344 10.8368 34.4528 10.841C34.3711 10.8453 34.2897 10.8281 34.2168 10.7912C34.1439 10.7543 34.0819 10.6989 34.0371 10.6307C33.9923 10.5625 33.9662 10.4838 33.9614 10.4024C33.9116 10.1132 33.9518 9.81578 34.0766 9.55008C34.2014 9.28439 34.4048 9.06318 34.6594 8.91622C35.1305 8.60498 35.6823 8.43757 36.2474 8.43452V8.43452Z" fill="#ADB5BD"/>
</g>
<defs>
<clipPath id="clip0_1473_26">
<rect width="35.7143" height="37.5" fill="white" transform="translate(7.14258 7.14282)"/>
</clipPath>
</defs>
</svg>
